<svg width="58" height="58" viewBox="0 0 58 58" fill="none" xmlns="http://www.w3.org/2000/svg">
<g clip-path="url(#clip0_16_343)">
<path d="M45.9167 2.4165H12.0833C8.87981 2.42034 5.8086 3.69464 3.54336 5.95987C1.27813 8.2251 0.00383732 11.2963 0 14.4998L0 43.4998C0.00383732 46.7034 1.27813 49.7746 3.54336 52.0398C5.8086 54.305 8.87981 55.5793 12.0833 55.5832H45.9167C49.1202 55.5793 52.1914 54.305 54.4566 52.0398C56.7219 49.7746 57.9962 46.7034 58 43.4998V14.4998C57.9962 11.2963 56.7219 8.2251 54.4566 5.95987C52.1914 3.69464 49.1202 2.42034 45.9167 2.4165ZM12.0833 7.24984H45.9167C47.3637 7.25268 48.7768 7.6885 49.9741 8.5012C51.1714 9.3139 52.0981 10.4663 52.635 11.8101L34.1282 30.3193C32.7662 31.6758 30.9223 32.4375 29 32.4375C27.0777 32.4375 25.2338 31.6758 23.8718 30.3193L5.365 11.8101C5.90186 10.4663 6.82857 9.3139 8.02586 8.5012C9.22316 7.6885 10.6363 7.25268 12.0833 7.24984ZM45.9167 50.7498H12.0833C10.1605 50.7498 8.31645 49.986 6.95681 48.6264C5.59717 47.2667 4.83333 45.4227 4.83333 43.4998V18.1248L20.4547 33.7365C22.723 35.9991 25.7961 37.2698 29 37.2698C32.2039 37.2698 35.277 35.9991 37.5453 33.7365L53.1667 18.1248V43.4998C53.1667 45.4227 52.4028 47.2667 51.0432 48.6264C49.6836 49.986 47.8395 50.7498 45.9167 50.7498Z" fill="#292F36"/>
</g>
<defs>
<clipPath id="clip0_16_343">
<rect width="58" height="58" fill="white"/>
</clipPath>
</defs>
</svg>
