<svg width="40" height="40" viewBox="0 0 40 40" fill="none" xmlns="http://www.w3.org/2000/svg">
<g clip-path="url(#clip0_13_95)">
<path d="M38.3367 35.9732H38.715L37.99 34.8765C38.4333 34.8765 38.6683 34.5948 38.6717 34.2498C38.6717 34.2365 38.6717 34.2215 38.67 34.2082C38.67 33.7382 38.3867 33.5132 37.805 33.5132H36.865V35.9732H37.2183V34.9015H37.6533L38.3367 35.9732ZM37.6283 34.6232H37.2183V33.7915H37.7383C38.0067 33.7915 38.3133 33.8348 38.3133 34.1865C38.3133 34.5898 38.005 34.6232 37.6283 34.6232Z" fill="#292F36"/>
<path d="M28.8183 31.7883H23.8067V23.94C23.8067 22.0683 23.7733 19.66 21.2 19.66C18.59 19.66 18.19 21.6983 18.19 23.805V31.7883H13.18V15.6483H17.9917V17.8533H18.0583C19.04 16.1766 20.8633 15.175 22.805 15.2466C27.885 15.2466 28.82 18.5883 28.82 22.9333L28.8183 31.7883ZM7.525 13.4416C5.91833 13.4416 4.61667 12.14 4.61667 10.5333C4.61667 8.92662 5.91833 7.62495 7.525 7.62495C9.13167 7.62495 10.4333 8.92662 10.4333 10.5333C10.4333 12.14 9.13167 13.4416 7.525 13.4416ZM10.03 31.7883H5.01333V15.6483H10.03V31.7883ZM31.3167 2.97162H2.495C1.13333 2.95662 0.0166667 4.04829 0 5.40995V34.35C0.0166667 35.7133 1.13333 36.805 2.495 36.79H31.3167C32.6817 36.8066 33.8033 35.715 33.8217 34.35V5.40829C33.8017 4.04329 32.68 2.95162 31.3167 2.96995" fill="#292F36"/>
<path d="M37.6717 32.4182C36.3983 32.4299 35.375 33.4732 35.3883 34.7465C35.4 36.0199 36.4433 37.0432 37.7167 37.0299C38.99 37.0182 40.0133 35.9749 40 34.7015C39.9883 33.4449 38.9717 32.4299 37.7167 32.4182H37.6717ZM37.725 36.7649C36.6083 36.7832 35.635 35.8949 35.6167 34.7782C35.5983 33.6615 36.4883 32.7415 37.605 32.7232C38.7217 32.7049 39.6417 33.5949 39.66 34.7115C39.66 34.7232 39.66 34.7332 39.66 34.7449C39.6833 35.8365 38.8167 36.7415 37.725 36.7649H37.6733H37.725Z" fill="#292F36"/>
</g>
<defs>
<clipPath id="clip0_13_95">
<rect width="40" height="40" fill="white"/>
</clipPath>
</defs>
</svg>
