<svg width="64" height="64" viewBox="0 0 64 64" fill="none" xmlns="http://www.w3.org/2000/svg">
<g clip-path="url(#clip0_15_117)">
<mask id="mask0_15_117" style="mask-type:alpha" maskUnits="userSpaceOnUse" x="0" y="0" width="64" height="64">
<circle cx="32" cy="32" r="32" fill="#526D82"/>
</mask>
<g mask="url(#mask0_15_117)">
<circle cx="32" cy="32" r="32" fill="#292F36"/>
<path d="M60.5 -4C56.5 33.5 21 34.9996 -6.5 63.4998L64 75C71.8333 37.3333 64.4179 -40.7305 60.5 -4Z" fill="#FF6B6B"/>
<path d="M23.6484 16.6357L22.8359 19.1429H17C14.2422 19.1429 12 21.4491 12 24.2857V44.8571C12 47.6937 14.2422 50 17 50H47C49.7578 50 52 47.6937 52 44.8571V24.2857C52 21.4491 49.7578 19.1429 47 19.1429H41.1641L40.3516 16.6357C39.8438 15.0607 38.4141 14 36.7969 14H27.2031C25.5859 14 24.1562 15.0607 23.6484 16.6357ZM32 26.8571C33.9891 26.8571 35.8968 27.6699 37.3033 29.1166C38.7098 30.5633 39.5 32.5255 39.5 34.5714C39.5 36.6174 38.7098 38.5795 37.3033 40.0263C35.8968 41.473 33.9891 42.2857 32 42.2857C30.0109 42.2857 28.1032 41.473 26.6967 40.0263C25.2902 38.5795 24.5 36.6174 24.5 34.5714C24.5 32.5255 25.2902 30.5633 26.6967 29.1166C28.1032 27.6699 30.0109 26.8571 32 26.8571Z" fill="#FFFBFA"/>
</g>
</g>
<defs>
<clipPath id="clip0_15_117">
<rect width="64" height="64" fill="white"/>
</clipPath>
</defs>
</svg>
